<svg xmlns="http://www.w3.org/2000/svg" version="1.1" xmlns:xlink="http://www.w3.org/1999/xlink" xmlns:svgjs="http://svgjs.dev/svgjs" width="1000" height="1000" viewBox="0 0 1000 1000"><rect width="1000" height="1000" fill="#ffffff"></rect><g transform="matrix(0.7,0,0,0.7,150.00077059784894,106.25)"><svg viewBox="0 0 320 360" data-background-color="#ffffff" preserveAspectRatio="xMidYMid meet" height="1125" width="1000" xmlns="http://www.w3.org/2000/svg" xmlns:xlink="http://www.w3.org/1999/xlink"><g id="tight-bounds" transform="matrix(1,0,0,1,0.00010353528136874957,0)"><svg viewBox="0 0 320 360" height="360" width="320"><g><svg></svg></g><g><svg viewBox="0 0 320 360" height="360" width="320"><g><path xmlns="http://www.w3.org/2000/svg" d="M307.925 179.999l6.575-11.387c11.322-19.607 4.604-44.679-15.003-56.001l-11.387-6.575v-13.151c0-22.639-18.354-40.994-40.994-40.994h-13.151l-6.575-11.387c-11.322-19.607-36.393-26.325-56.001-15.003l-11.39 6.572-11.387-6.576c-19.607-11.318-44.679-4.6-56.001 15.007l-6.575 11.387h-13.151c-22.639 0-40.994 18.354-40.994 40.994v13.151l-11.387 6.575c-19.607 11.322-26.325 36.393-15.003 56.001l6.572 11.387-6.576 11.387c-11.318 19.607-4.6 44.679 15.007 56l11.387 6.576v13.15c0 22.639 18.354 40.994 40.994 40.994h13.151l6.575 11.387c11.322 19.607 36.393 26.325 56.001 15.003l11.387-6.571 11.387 6.575c19.607 11.322 44.679 4.604 56-15.003l6.576-11.387h13.15c22.639 0 40.994-18.354 40.994-40.994v-13.151l11.387-6.575c19.607-11.322 26.325-36.393 15.003-56.001zM297.702 115.716c8.655 4.996 14.842 13.062 17.428 22.713 2.586 9.65 1.261 19.734-3.735 28.384l-5.538 9.596-17.747-30.74v-35.494zM251.155 271.155l-57.791 33.365h-66.731l-57.791-33.365-33.365-57.791v-66.731l33.365-57.791 57.791-33.365h66.731l57.791 33.365 33.365 57.791v66.731zM284.517 220.539v31.351l-27.151 15.676zM247.566 277.366l-15.676 27.151h-31.351zM187.15 308.106l-27.151 15.676-27.151-15.676zM119.459 304.517h-31.352l-15.676-27.151zM62.632 267.566l-27.151-15.676v-31.351zM31.891 207.15l-15.675-27.151 15.675-27.151zM35.481 139.459v-31.352l27.151-15.676zM72.431 82.632l15.676-27.151h31.352zM132.848 51.891l27.151-15.675 27.151 15.675zM200.539 55.481h31.351l15.676 27.151zM257.366 92.431l27.151 15.676v31.352zM288.106 152.848l15.676 27.151-15.676 27.151zM247.112 55.481c9.992 0 19.384 3.889 26.452 10.956 7.063 7.063 10.956 16.46 10.957 26.452v11.079l-30.741-17.747-17.747-30.74zM173.18 28.606c8.655-4.996 18.735-6.322 28.385-3.735 9.65 2.586 17.716 8.777 22.712 17.428l5.538 9.596h-35.494l-30.741-17.747zM95.716 42.295c4.996-8.655 13.062-14.842 22.713-17.428 9.65-2.586 19.734-1.261 28.384 3.736l9.596 5.537-30.74 17.747h-35.494zM35.481 92.885c0-9.992 3.889-19.384 10.956-26.452 7.063-7.063 16.46-10.956 26.452-10.956h11.079l-17.747 30.74-30.74 17.747zM8.606 166.817c-4.996-8.655-6.322-18.735-3.735-28.385 2.586-9.65 8.777-17.716 17.428-22.712l9.596-5.538v35.495l-17.747 30.74zM22.295 244.281c-8.655-4.996-14.842-13.062-17.428-22.712-2.586-9.65-1.261-19.734 3.736-28.385l5.537-9.596 17.747 30.74v35.495zM72.885 304.517c-9.992 0-19.384-3.889-26.452-10.957-7.063-7.063-10.956-16.46-10.956-26.451v-11.08l30.74 17.747 17.747 30.741zM146.817 331.391c-8.655 4.996-18.735 6.322-28.385 3.735-9.65-2.586-17.716-8.777-22.712-17.428l-5.538-9.596h35.495l30.74 17.747zM224.281 317.702c-4.996 8.655-13.062 14.842-22.712 17.428-9.65 2.586-19.734 1.261-28.385-3.735l-9.596-5.538 30.74-17.747h35.495zM284.517 267.112c0 9.992-3.889 19.384-10.957 26.452-7.063 7.063-16.46 10.956-26.451 10.957h-11.08l17.747-30.741 30.741-17.747zM315.13 221.565c-2.586 9.65-8.777 17.716-17.428 22.712l-9.596 5.538v-35.494l17.747-30.741 5.538 9.596c4.996 8.658 6.326 18.739 3.739 28.389z" fill="#0c2439" fill-rule="nonzero" stroke="none" stroke-width="1" stroke-linecap="butt" stroke-linejoin="miter" stroke-miterlimit="10" stroke-dasharray="" stroke-dashoffset="0" font-family="none" font-weight="none" font-size="none" text-anchor="none" style="mix-blend-mode: normal" data-fill-palette-color="tertiary"></path></g><g transform="matrix(1,0,0,1,64,128.38339462000744)"><svg viewBox="0 0 192 103.23321075998513" height="103.23321075998513" width="192"><g><svg viewBox="0 0 192 103.23321075998513" height="103.23321075998513" width="192"><g><svg viewBox="0 0 192 103.23321075998513" height="103.23321075998513" width="192"><g transform="matrix(1,0,0,1,0,77.42539841842334)"><svg viewBox="0 0 192 25.80781234156179" height="25.80781234156179" width="192"><g id="textblocktransform"><svg viewBox="0 0 192 25.80781234156179" height="25.80781234156179" width="192" id="textblock"><g><svg viewBox="0 0 192 25.80781234156179" height="25.80781234156179" width="192"><g transform="matrix(1,0,0,1,0,0)"><svg width="192" viewBox="1.7300000190734863 -37.54999923706055 282.6299743652344 37.991607666015625" height="25.80781234156179" data-palette-color="#000000"><path d="M41.94-35.01L48.39-35.01 42.53-2.2Q42.33-1.22 41.65-0.51 40.97 0.2 39.99 0.39L39.99 0.39Q38.99 0.56 38.1 0.17 37.21-0.22 36.69-1.05L36.69-1.05 25.07-20.14 13.43-1.05Q13.01-0.34 12.29 0.05 11.57 0.44 10.74 0.44L10.74 0.44Q9.59 0.44 8.72-0.29 7.84-1.03 7.64-2.2L7.64-2.2 1.73-35.01 8.18-35.01 12.38-11.89 22.39-27.86Q22.8-28.56 23.52-28.96 24.24-29.35 25.07-29.35L25.07-29.35Q25.9-29.35 26.61-28.96 27.32-28.56 27.78-27.86L27.78-27.86 37.74-11.89 41.94-35.01ZM79.42-17.65L79.42-8.74Q79.42-7.42 78.95-5.9 78.49-4.37 77.45-3.06 76.41-1.76 74.74-0.88 73.07 0 70.68 0L70.68 0 59.23 0Q57.91 0 56.38-0.46 54.86-0.93 53.55-1.97 52.24-3 51.36-4.68 50.49-6.35 50.49-8.74L50.49-8.74Q50.49-10.06 50.95-11.6 51.41-13.13 52.45-14.44 53.49-15.75 55.16-16.63 56.83-17.5 59.23-17.5L59.23-17.5 70.68-17.5 70.68-11.45 59.23-11.45Q57.93-11.45 57.22-10.66 56.52-9.86 56.52-8.69L56.52-8.69Q56.52-7.45 57.33-6.75 58.15-6.05 59.27-6.05L59.27-6.05 70.68-6.05Q71.97-6.05 72.68-6.84 73.39-7.62 73.39-8.79L73.39-8.79 73.39-17.65Q73.39-18.9 72.62-19.63 71.85-20.36 70.68-20.36L70.68-20.36 56.74-20.36 56.74-26.39 70.68-26.39Q71.99-26.39 73.52-25.93 75.05-25.46 76.35-24.43 77.66-23.39 78.54-21.72 79.42-20.04 79.42-17.65L79.42-17.65ZM108.74-26.39L108.74-20.04 97.65-20.04 97.65 0 91.23 0 91.23-20.04 82.98-20.04 82.98-26.39 91.23-26.39 91.23-35.01 97.65-35.01 97.65-26.39 108.74-26.39ZM138.37-6.35L138.37 0 121.16 0Q119.84 0 118.28-0.46 116.72-0.93 115.39-1.99 114.06-3.05 113.16-4.75 112.27-6.45 112.27-8.91L112.27-8.91 112.27-17.5Q112.27-18.41 112.48-19.41 112.69-20.41 113.13-21.4 113.57-22.39 114.26-23.29 114.96-24.19 115.95-24.88 116.94-25.56 118.23-25.98 119.52-26.39 121.16-26.39L121.16-26.39 138.37-26.39 138.37-20.04 121.16-20.04Q119.91-20.04 119.27-19.41 118.62-18.77 118.62-17.46L118.62-17.46 118.62-8.91Q118.62-7.67 119.28-7.01 119.94-6.35 121.21-6.35L121.21-6.35 138.37-6.35ZM172.96-17.5L172.96 0 166.62 0 166.62-17.5Q166.62-18.75 165.98-19.4 165.35-20.04 164.08-20.04L164.08-20.04 152.63-20.04 152.63-26.39 164.08-26.39Q164.98-26.39 165.98-26.18 166.98-25.98 167.97-25.54 168.96-25.1 169.86-24.4 170.77-23.71 171.45-22.72 172.13-21.73 172.55-20.43 172.96-19.14 172.96-17.5L172.96-17.5ZM150.06-37.55L150.06 0 143.72 0 143.72-37.55 150.06-37.55ZM202.33-17.5L202.33 0 195.98 0 195.98-17.5Q195.98-18.75 195.32-19.4 194.67-20.04 193.37-20.04L193.37-20.04 185.12-20.04 185.12 0 178.77 0 178.77-23.24Q178.77-23.9 179.02-24.48 179.26-25.05 179.7-25.48 180.14-25.9 180.72-26.15 181.31-26.39 181.97-26.39L181.97-26.39 193.42-26.39Q194.74-26.39 196.25-25.93 197.77-25.46 199.13-24.44L199.13-24.44 199.13-26.39 207.73-26.39Q208.63-26.39 209.63-26.18 210.63-25.98 211.62-25.54 212.61-25.1 213.51-24.4 214.42-23.71 215.1-22.72 215.78-21.73 216.2-20.43 216.61-19.14 216.61-17.5L216.61-17.5 216.61 0 210.27 0 210.27-17.5Q210.27-18.75 209.64-19.4 209.02-20.04 207.73-20.04L207.73-20.04 202.01-20.04Q202.33-18.87 202.33-17.5L202.33-17.5ZM249.69-17.65L249.69-8.74Q249.69-7.42 249.23-5.9 248.76-4.37 247.73-3.06 246.69-1.76 245.02-0.88 243.34 0 240.95 0L240.95 0 229.5 0Q228.18 0 226.66-0.46 225.13-0.93 223.83-1.97 222.52-3 221.64-4.68 220.76-6.35 220.76-8.74L220.76-8.74Q220.76-10.06 221.23-11.6 221.69-13.13 222.73-14.44 223.76-15.75 225.44-16.63 227.11-17.5 229.5-17.5L229.5-17.5 240.95-17.5 240.95-11.45 229.5-11.45Q228.21-11.45 227.5-10.66 226.79-9.86 226.79-8.69L226.79-8.69Q226.79-7.45 227.61-6.75 228.43-6.05 229.55-6.05L229.55-6.05 240.95-6.05Q242.25-6.05 242.95-6.84 243.66-7.62 243.66-8.79L243.66-8.79 243.66-17.65Q243.66-18.9 242.89-19.63 242.12-20.36 240.95-20.36L240.95-20.36 227.01-20.36 227.01-26.39 240.95-26.39Q242.27-26.39 243.8-25.93 245.32-25.46 246.63-24.43 247.93-23.39 248.81-21.72 249.69-20.04 249.69-17.65L249.69-17.65ZM284.36-14.65L284.36 0 278.01 0 278.01-14.65Q278.01-15.89 277.58-16.88 277.16-17.87 276.42-18.58 275.69-19.29 274.7-19.67 273.71-20.04 272.57-20.04L272.57-20.04 261.46-20.04 261.46 0 255.11 0 255.11-23.24Q255.11-23.9 255.35-24.48 255.6-25.05 256.04-25.48 256.48-25.9 257.06-26.15 257.65-26.39 258.31-26.39L258.31-26.39 272.61-26.39Q273.81-26.39 275.14-26.12 276.47-25.85 277.78-25.26 279.08-24.66 280.27-23.74 281.45-22.83 282.37-21.52 283.28-20.21 283.82-18.51 284.36-16.8 284.36-14.65L284.36-14.65Z" opacity="1" transform="matrix(1,0,0,1,0,0)" fill="#000000" class="undefined-text-0" data-fill-palette-color="primary" id="text-0"></path></svg></g></svg></g></svg></g></svg></g><g transform="matrix(1,0,0,1,51.016257516718596,0)"><svg viewBox="0 0 89.96748496656281 71.3327933120768" height="71.3327933120768" width="89.96748496656281"><g><svg xmlns="http://www.w3.org/2000/svg" xmlns:xlink="http://www.w3.org/1999/xlink" version="1.1" x="0" y="0" viewBox="27.5000057220459 32.20000076293945 44.899993896484375 35.59999465942383" style="enable-background:new 0 0 100 100;" xml:space="preserve" height="71.3327933120768" width="89.96748496656281" class="icon-icon-0" data-fill-palette-color="accent" id="icon-0"><g fill="#000000" data-fill-palette-color="accent"><path d="M29.5 32.3c0.4-0.1 0.8-0.1 1.1-0.1 12.8 0 25.7 0 38.5 0 0.5 0 1 0 1.5 0.1 1 0.3 1.8 1.3 1.8 2.4 0 10 0 19.9 0 29.9 0 0.5 0 1-0.1 1.4-0.2 0.8-0.9 1.5-1.7 1.7-0.4 0.1-0.8 0.1-1.1 0.1-13.1 0-26.3 0-39.4 0-0.6 0-1.2-0.2-1.7-0.6-0.6-0.5-0.9-1.2-0.9-2 0-10.2 0-20.4 0-30.6C27.5 33.6 28.4 32.5 29.5 32.3M29.5 34.7c0 0.2 0 0.3 0 0.5 0 8.7 0 17.5 0 26.2 0.2 0.2 0.5 0.4 0.9 0.4s0.8 0 1.2 0c0-9.2 0-18.4 0-27.6-0.5 0-1 0-1.5 0C29.9 34.2 29.6 34.4 29.5 34.7M32.4 34.2c0 9.2 0 18.4 0 27.6 3.1 0 6.3 0 9.4 0-1.5-1.1-2.9-2.5-3.9-4-1.2-1.9-2-4.1-2.2-6.4-0.2-2.5 0.2-5 1.2-7.2s2.5-4.1 4.5-5.5c1.9-1.4 4.2-2.4 6.5-2.7 2.5-0.4 5.1 0 7.4 0.9 2.1 0.9 4 2.2 5.5 4 1.4 1.6 2.4 3.5 2.9 5.5 0.7 2.5 0.6 5.2-0.1 7.6-0.9 3.1-2.9 5.9-5.6 7.8 2.2 0 4.4 0 6.6 0 0.5 0 1-0.4 1.2-0.8 0.1-0.2 0.1-0.5 0.1-0.8 0-8.5 0-16.9 0-25.4 0-0.2-0.1-0.4-0.1-0.6C54.6 34.2 43.4 34.2 32.4 34.2M66.4 34.2c0.1 0.2 0.1 0.4 0.1 0.6 0 8.6 0 17.1 0 25.7 0 1-0.9 1.9-1.9 1.9-2.5 0-5.1 0-7.6 0-0.1 0-0.2 0.1-0.3 0.1-2.7 1.5-5.8 2.1-8.9 1.6-1.8-0.2-3.5-0.8-5.1-1.7-3.5 0-7 0-10.5 0 0 1.2 0 2.3 0 3.5 12.5 0 25 0 37.5 0 0.3 0 0.7-0.3 0.6-0.6 0-10.2 0-20.3 0-30.5 0-0.3-0.3-0.6-0.6-0.6C68.8 34.2 67.6 34.2 66.4 34.2M49.4 37.9c-1.3 0-2.7 0.3-3.9 0.8-2.3 0.9-4.4 2.5-5.8 4.5-1.4 2.1-2.2 4.6-2.2 7.1s0.8 4.9 2.2 6.9c1.2 1.8 2.9 3.2 4.9 4.1 1.8 0.8 3.7 1.2 5.7 1.1s4-0.7 5.8-1.7c2.5-1.5 4.5-4 5.4-6.8 0.8-2.6 0.8-5.5-0.2-8.1-0.9-2.4-2.6-4.5-4.8-5.9C54.4 38.5 51.9 37.8 49.4 37.9M29.5 62.3c0 1 0 2.1 0 3.1 0 0.3 0.3 0.6 0.6 0.6 0.5 0 1 0 1.5 0 0-1.2 0-2.3 0-3.5C30.9 62.4 30.1 62.6 29.5 62.3z" fill="#000000" data-fill-palette-color="accent"></path><path d="M48.9 39.7c0.6-0.1 1.2-0.1 1.8 0-0.1 0.8-0.1 1.7-0.2 2.5-0.4 0-0.9 0-1.3 0C49 41.4 48.9 40.6 48.9 39.7z" fill="#000000" data-fill-palette-color="accent"></path><path d="M48.4 48.3c2.7-2.2 5.4-4.5 8.1-6.7 0.4 0.5 1.6 1.9 1.7 2.1-2.2 1.8-4.4 3.7-6.6 5.5 0.7 0.9 1.5 1.8 2.2 2.7-0.7 0.6-1.4 1.1-2.1 1.7-1.3-1.6-2.6-3.2-4-4.7-2.3-1.1-4.7-2.2-7.1-3.4 0.1-0.2 0.2-0.4 0.3-0.6C43.4 46 45.9 47.2 48.4 48.3z" fill="#000000" data-fill-palette-color="accent"></path><path d="M41.9 43.6c0.4-0.5 0.8-0.9 1.2-1.3 0.6 0.6 1.1 1.3 1.7 1.9-0.3 0.3-0.6 0.6-0.9 1C43.2 44.6 42.5 44.1 41.9 43.6z" fill="#000000" data-fill-palette-color="accent"></path><path d="M57.9 49.3c0.8-0.1 1.7-0.2 2.5-0.3 0.1 0.6 0.1 1.2 0 1.8-0.8-0.1-1.7-0.1-2.5-0.2C57.9 50.2 57.9 49.7 57.9 49.3z" fill="#000000" data-fill-palette-color="accent"></path><path d="M39.6 49.4c0.8 0.1 1.7 0.1 2.5 0.2 0 0.4 0 0.9 0 1.3-0.8 0.1-1.7 0.2-2.5 0.3C39.5 50.6 39.5 50 39.6 49.4z" fill="#000000" data-fill-palette-color="accent"></path><path d="M55.2 56c0.3-0.3 0.6-0.6 0.9-1 0.7 0.5 1.3 1.1 2 1.6-0.4 0.5-0.8 0.9-1.2 1.3C56.4 57.3 55.8 56.6 55.2 56z" fill="#000000" data-fill-palette-color="accent"></path><path d="M42.1 57c0.6-0.6 1.3-1.1 1.9-1.7 0.3 0.3 0.6 0.6 1 0.9-0.5 0.7-1.1 1.3-1.6 2C43 57.8 42.5 57.4 42.1 57z" fill="#000000" data-fill-palette-color="accent"></path><path d="M49.5 58c0.4 0 0.9 0 1.3 0 0.1 0.8 0.2 1.7 0.3 2.5-0.6 0.1-1.2 0.1-1.8 0C49.4 59.6 49.4 58.8 49.5 58z" fill="#000000" data-fill-palette-color="accent"></path></g></svg></g></svg></g><g></g></svg></g></svg></g></svg></g></svg></g><defs></defs></svg><rect width="320" height="360" fill="none" stroke="none" visibility="hidden"></rect></g></svg></g></svg>